<svg width="70" height="70" viewBox="0 0 70 70" fill="none" xmlns="http://www.w3.org/2000/svg">
<path d="M26.4725 8.34495C25.4228 5.72075 22.8812 4 20.0549 4H10.5482C6.93173 4 4 6.93102 4 10.5475C4 41.2876 28.9205 66.2079 59.6605 66.2079C63.277 66.2079 66.208 63.276 66.208 59.6595L66.2096 50.1513C66.2096 47.3249 64.4893 44.7838 61.8651 43.7341L52.7535 40.0908C50.3963 39.1479 47.7125 39.5723 45.7621 41.1976L43.4106 43.1588C40.6642 45.4474 36.6234 45.2654 34.0955 42.7376L27.4739 36.1099C24.9461 33.5821 24.7593 29.5445 27.0479 26.7981L29.0088 24.4467C30.6341 22.4964 31.0622 19.8118 30.1193 17.4545L26.4725 8.34495Z" stroke="#E91A29" stroke-opacity="0.78" stroke-width="6.912" stroke-linecap="round" stroke-linejoin="round"/>
</svg>
