<svg width="91" height="86" viewBox="0 0 91 86" fill="none" xmlns="http://www.w3.org/2000/svg">
<path d="M79.3015 30.7202L77.8183 29.8951C77.588 29.767 77.4747 29.7027 77.3634 29.636C76.2575 28.9735 75.3252 28.0581 74.6449 26.963C74.5765 26.8528 74.512 26.7373 74.3801 26.5089C74.2483 26.2808 74.1816 26.1652 74.1203 26.0507C73.5101 24.9114 73.18 23.6417 73.1602 22.3494C73.1583 22.2195 73.1587 22.0867 73.1632 21.8228L73.1921 20.1005C73.2385 17.3444 73.2618 15.962 72.8744 14.7214C72.5304 13.6195 71.9548 12.6045 71.1862 11.7432C70.3174 10.7696 69.1149 10.075 66.7071 8.68752L64.7072 7.53505C62.3062 6.15147 61.1053 5.45944 59.8306 5.19562C58.7029 4.96222 57.5391 4.97304 56.4155 5.22529C55.1473 5.50998 53.9614 6.22005 51.591 7.63936L51.5776 7.64579L50.1446 8.50383C49.918 8.6395 49.8033 8.70789 49.6898 8.77103C48.5627 9.39764 47.3046 9.74412 46.0157 9.78549C45.8858 9.78966 45.7537 9.78966 45.4895 9.78966C45.2269 9.78966 45.0891 9.78966 44.9595 9.78549C43.6679 9.74394 42.4071 9.39558 41.2783 8.76638C41.1645 8.70296 41.052 8.63403 40.8249 8.49772L39.3828 7.63195C36.9963 6.1992 35.8012 5.48174 34.526 5.19562C33.3978 4.94249 32.23 4.93549 31.0982 5.17189C29.8202 5.43882 28.619 6.13598 26.2166 7.53031L26.206 7.53505L24.2309 8.68134L24.2091 8.69471C21.8283 10.0765 20.635 10.769 19.7736 11.7387C19.0091 12.5991 18.4377 13.6125 18.0956 14.7115C17.709 15.9538 17.7296 17.3391 17.7762 20.1082L17.8052 21.8281C17.8096 22.0886 17.8172 22.218 17.8153 22.3461C17.7961 23.641 17.4617 24.9133 16.8496 26.0547C16.7891 26.1676 16.7239 26.2805 16.5937 26.5059C16.4633 26.7316 16.4002 26.8438 16.3326 26.9527C15.6493 28.0536 14.7128 28.9744 13.5999 29.638C13.4898 29.7036 13.3738 29.7668 13.1458 29.8931L11.6815 30.7046C9.24512 32.0547 8.02723 32.7304 7.14103 33.6919C6.35706 34.5425 5.76483 35.5515 5.40331 36.6504C4.99466 37.8925 4.99501 39.2853 5.00133 42.0708L5.00651 44.3474C5.01279 47.1142 5.02141 48.4967 5.43097 49.7304C5.79331 50.8219 6.38123 51.8249 7.16081 52.6704C8.04199 53.6261 9.24777 54.2976 11.6656 55.6426L13.1169 56.45C13.3639 56.5874 13.4882 56.6552 13.6073 56.727C14.7102 57.3911 15.6393 58.3092 16.3168 59.4039C16.39 59.5222 16.4603 59.6449 16.6008 59.8904C16.7396 60.1328 16.8105 60.2541 16.8747 60.3756C17.4687 61.5002 17.7868 62.7498 17.8085 64.0215C17.8108 64.1589 17.8088 64.2978 17.8041 64.5772L17.7762 66.2276C17.7293 69.0063 17.7089 70.3972 18.0978 71.6429C18.4418 72.7449 19.0168 73.7597 19.7854 74.6211C20.6542 75.5948 21.8587 76.2889 24.2665 77.6764L26.266 78.8286C28.6671 80.2122 29.8672 80.9034 31.1419 81.1672C32.2696 81.4006 33.434 81.3915 34.5576 81.1393C35.8276 80.8542 37.0176 80.1417 39.3947 78.7183L40.8277 77.8603C41.0544 77.7246 41.1692 77.6565 41.2828 77.5933C42.4098 76.9667 43.6667 76.6184 44.9555 76.5771C45.0854 76.5729 45.2175 76.5729 45.4818 76.5729C45.7466 76.5729 45.8786 76.5729 46.0088 76.5771C47.3004 76.6186 48.5649 76.9681 49.6937 77.5973C49.793 77.6526 49.8925 77.7124 50.0673 77.8174L51.5907 78.732C53.9776 80.165 55.1701 80.8803 56.4454 81.1664C57.5736 81.4195 58.7423 81.4299 59.8741 81.1934C61.1517 80.9266 62.3553 80.228 64.7564 78.8345L66.7611 77.671C69.1434 76.2883 70.338 75.595 71.1997 74.625C71.9642 73.7646 72.5364 72.7517 72.8784 71.6526C73.2622 70.4194 73.239 69.0447 73.1931 66.3156L73.1632 64.5356C73.1588 64.2752 73.1583 64.1456 73.1602 64.0175C73.1793 62.7226 73.5083 61.4494 74.1203 60.308C74.1807 60.1953 74.2464 60.0816 74.3763 59.8568C74.5066 59.6312 74.574 59.5187 74.6416 59.4099C75.3249 58.3089 76.2623 57.3873 77.3753 56.7237C77.4841 56.6588 77.596 56.5968 77.8186 56.4735L77.8262 56.4699L79.2905 55.6585C81.7269 54.3083 82.9471 53.6319 83.8333 52.6704C84.6173 51.8198 85.2087 50.8122 85.5702 49.7134C85.9765 48.4785 85.9733 47.0938 85.9671 44.3409L85.9618 42.0154C85.9555 39.2486 85.9521 37.8663 85.5426 36.6326C85.1802 35.5411 84.589 34.538 83.8094 33.6926C82.9291 32.7378 81.7217 32.0661 79.3085 30.7236L79.3015 30.7202Z" stroke="#E91A29" stroke-opacity="0.78" stroke-width="8.1" stroke-linecap="round" stroke-linejoin="round"/>
<path d="M29.2855 43.1822C29.2855 52.1292 36.5385 59.3822 45.4855 59.3822C54.4325 59.3822 61.6855 52.1292 61.6855 43.1822C61.6855 34.2352 54.4325 26.9822 45.4855 26.9822C36.5385 26.9822 29.2855 34.2352 29.2855 43.1822Z" stroke="#E91A29" stroke-opacity="0.78" stroke-width="8.1" stroke-linecap="round" stroke-linejoin="round"/>
</svg>
