<svg width="88" height="72" viewBox="0 0 88 72" fill="none" xmlns="http://www.w3.org/2000/svg">
<path d="M4 68H12M12 68H32M12 68V16.8008C12 12.3204 12 10.0785 12.8719 8.36719C13.6389 6.86189 14.8619 5.63893 16.3672 4.87195C18.0785 4 20.3204 4 24.8008 4H31.2008C35.6812 4 37.9183 4 39.6296 4.87195C41.1349 5.63893 42.3619 6.86189 43.1289 8.36719C44 10.0768 44 12.316 44 16.7876V28.0008M32 68H76M32 68V45.4727C32 43.3711 32 42.32 32.252 41.3398C32.4753 40.4712 32.8429 39.6474 33.3398 38.9007C33.9002 38.0587 34.6845 37.3537 36.2461 35.9508L45.4524 27.6799C48.4713 24.9677 49.982 23.6106 51.69 23.0957C53.1957 22.6418 54.8028 22.6418 56.3086 23.0957C58.018 23.611 59.5307 24.9688 62.5547 27.6855L71.7547 35.9508C73.318 37.3552 74.0981 38.0582 74.6587 38.9007C75.1557 39.6474 75.5228 40.4712 75.7461 41.3398C75.9981 42.32 76 43.3711 76 45.4727V68M76 68H84" stroke="#E91A29" stroke-opacity="0.78" stroke-width="8" stroke-linecap="round" stroke-linejoin="round"/>
</svg>
